<svg width="178" height="44" viewBox="0 0 178 44" fill="none" xmlns="http://www.w3.org/2000/svg">
<g filter="url(#filter0_d_6_4093)">
<path d="M10.49 27V6H20.75C23.39 6 25.37 6.5 26.69 7.5C28.03 8.5 28.7 9.82 28.7 11.46C28.7 12.56 28.43 13.52 27.89 14.34C27.35 15.14 26.61 15.76 25.67 16.2C24.73 16.64 23.65 16.86 22.43 16.86L23 15.63C24.32 15.63 25.49 15.85 26.51 16.29C27.53 16.71 28.32 17.34 28.88 18.18C29.46 19.02 29.75 20.05 29.75 21.27C29.75 23.07 29.04 24.48 27.62 25.5C26.2 26.5 24.11 27 21.35 27H10.49ZM15.32 23.34H20.99C22.25 23.34 23.2 23.14 23.84 22.74C24.5 22.32 24.83 21.66 24.83 20.76C24.83 19.88 24.5 19.23 23.84 18.81C23.2 18.37 22.25 18.15 20.99 18.15H14.96V14.61H20.15C21.33 14.61 22.23 14.41 22.85 14.01C23.49 13.59 23.81 12.96 23.81 12.12C23.81 11.3 23.49 10.69 22.85 10.29C22.23 9.87 21.33 9.66 20.15 9.66H15.32V23.34ZM33.0995 27V4.74H37.7795V27H33.0995ZM49.8029 27.24C48.0829 27.24 46.5529 26.88 45.2129 26.16C43.8929 25.44 42.8429 24.46 42.0629 23.22C41.3029 21.96 40.9229 20.53 40.9229 18.93C40.9229 17.31 41.3029 15.88 42.0629 14.64C42.8429 13.38 43.8929 12.4 45.2129 11.7C46.5529 10.98 48.0829 10.62 49.8029 10.62C51.5029 10.62 53.0229 10.98 54.3629 11.7C55.7029 12.4 56.7529 13.37 57.5129 14.61C58.2729 15.85 58.6529 17.29 58.6529 18.93C58.6529 20.53 58.2729 21.96 57.5129 23.22C56.7529 24.46 55.7029 25.44 54.3629 26.16C53.0229 26.88 51.5029 27.24 49.8029 27.24ZM49.8029 23.4C50.5829 23.4 51.2829 23.22 51.9029 22.86C52.5229 22.5 53.0129 21.99 53.3729 21.33C53.7329 20.65 53.9129 19.85 53.9129 18.93C53.9129 17.99 53.7329 17.19 53.3729 16.53C53.0129 15.87 52.5229 15.36 51.9029 15C51.2829 14.64 50.5829 14.46 49.8029 14.46C49.0229 14.46 48.3229 14.64 47.7029 15C47.0829 15.36 46.5829 15.87 46.2029 16.53C45.8429 17.19 45.6629 17.99 45.6629 18.93C45.6629 19.85 45.8429 20.65 46.2029 21.33C46.5829 21.99 47.0829 22.5 47.7029 22.86C48.3229 23.22 49.0229 23.4 49.8029 23.4ZM69.5811 27.24C67.8411 27.24 66.2911 26.89 64.9311 26.19C63.5711 25.47 62.5011 24.48 61.7211 23.22C60.9611 21.96 60.5811 20.53 60.5811 18.93C60.5811 17.31 60.9611 15.88 61.7211 14.64C62.5011 13.38 63.5711 12.4 64.9311 11.7C66.2911 10.98 67.8411 10.62 69.5811 10.62C71.2811 10.62 72.7611 10.98 74.0211 11.7C75.2811 12.4 76.2111 13.41 76.8111 14.73L73.1811 16.68C72.7611 15.92 72.2311 15.36 71.5911 15C70.9711 14.64 70.2911 14.46 69.5511 14.46C68.7511 14.46 68.0311 14.64 67.3911 15C66.7511 15.36 66.2411 15.87 65.8611 16.53C65.5011 17.19 65.3211 17.99 65.3211 18.93C65.3211 19.87 65.5011 20.67 65.8611 21.33C66.2411 21.99 66.7511 22.5 67.3911 22.86C68.0311 23.22 68.7511 23.4 69.5511 23.4C70.2911 23.4 70.9711 23.23 71.5911 22.89C72.2311 22.53 72.7611 21.96 73.1811 21.18L76.8111 23.16C76.2111 24.46 75.2811 25.47 74.0211 26.19C72.7611 26.89 71.2811 27.24 69.5811 27.24ZM83.2878 23.7L83.4078 18L90.9378 10.86H96.5178L89.2878 18.21L86.8578 20.19L83.2878 23.7ZM79.4178 27V4.74H84.0978V27H79.4178ZM91.4478 27L85.9878 20.22L88.9278 16.59L97.1178 27H91.4478Z" fill="white"/>
<path d="M105.853 27L96.7925 6H102.043L109.963 24.6H106.873L114.913 6H119.743L110.653 27H105.853ZM127.645 27.24C125.925 27.24 124.395 26.88 123.055 26.16C121.735 25.44 120.685 24.46 119.905 23.22C119.145 21.96 118.765 20.53 118.765 18.93C118.765 17.31 119.145 15.88 119.905 14.64C120.685 13.38 121.735 12.4 123.055 11.7C124.395 10.98 125.925 10.62 127.645 10.62C129.345 10.62 130.865 10.98 132.205 11.7C133.545 12.4 134.595 13.37 135.355 14.61C136.115 15.85 136.495 17.29 136.495 18.93C136.495 20.53 136.115 21.96 135.355 23.22C134.595 24.46 133.545 25.44 132.205 26.16C130.865 26.88 129.345 27.24 127.645 27.24ZM127.645 23.4C128.425 23.4 129.125 23.22 129.745 22.86C130.365 22.5 130.855 21.99 131.215 21.33C131.575 20.65 131.755 19.85 131.755 18.93C131.755 17.99 131.575 17.19 131.215 16.53C130.855 15.87 130.365 15.36 129.745 15C129.125 14.64 128.425 14.46 127.645 14.46C126.865 14.46 126.165 14.64 125.545 15C124.925 15.36 124.425 15.87 124.045 16.53C123.685 17.19 123.505 17.99 123.505 18.93C123.505 19.85 123.685 20.65 124.045 21.33C124.425 21.99 124.925 22.5 125.545 22.86C126.165 23.22 126.865 23.4 127.645 23.4ZM146.223 27.24C144.323 27.24 142.843 26.76 141.783 25.8C140.723 24.82 140.193 23.37 140.193 21.45V7.29H144.873V21.39C144.873 22.07 145.053 22.6 145.413 22.98C145.773 23.34 146.263 23.52 146.883 23.52C147.623 23.52 148.253 23.32 148.773 22.92L150.033 26.22C149.553 26.56 148.973 26.82 148.293 27C147.633 27.16 146.943 27.24 146.223 27.24ZM137.703 14.82V11.22H148.893V14.82H137.703ZM160.172 27.24C158.332 27.24 156.712 26.88 155.312 26.16C153.932 25.44 152.862 24.46 152.102 23.22C151.342 21.96 150.962 20.53 150.962 18.93C150.962 17.31 151.332 15.88 152.072 14.64C152.832 13.38 153.862 12.4 155.162 11.7C156.462 10.98 157.932 10.62 159.572 10.62C161.152 10.62 162.572 10.96 163.832 11.64C165.112 12.3 166.122 13.26 166.862 14.52C167.602 15.76 167.972 17.25 167.972 18.99C167.972 19.17 167.962 19.38 167.942 19.62C167.922 19.84 167.902 20.05 167.882 20.25H154.772V17.52H165.422L163.622 18.33C163.622 17.49 163.452 16.76 163.112 16.14C162.772 15.52 162.302 15.04 161.702 14.7C161.102 14.34 160.402 14.16 159.602 14.16C158.802 14.16 158.092 14.34 157.472 14.7C156.872 15.04 156.402 15.53 156.062 16.17C155.722 16.79 155.552 17.53 155.552 18.39V19.11C155.552 19.99 155.742 20.77 156.122 21.45C156.522 22.11 157.072 22.62 157.772 22.98C158.492 23.32 159.332 23.49 160.292 23.49C161.152 23.49 161.902 23.36 162.542 23.1C163.202 22.84 163.802 22.45 164.342 21.93L166.832 24.63C166.092 25.47 165.162 26.12 164.042 26.58C162.922 27.02 161.632 27.24 160.172 27.24Z" fill="#1CB859"/>
</g>
<defs>
<filter id="filter0_d_6_4093" x="0.48999" y="0.73999" width="177.482" height="42.5" filterUnits="userSpaceOnUse" color-interpolation-filters="sRGB">
<feFlood flood-opacity="0" result="BackgroundImageFix"/>
<feColorMatrix in="SourceAlpha" type="matrix" values="0 0 0 0 0 0 0 0 0 0 0 0 0 0 0 0 0 0 127 0" result="hardAlpha"/>
<feOffset dy="6"/>
<feGaussianBlur stdDeviation="5"/>
<feComposite in2="hardAlpha" operator="out"/>
<feColorMatrix type="matrix" values="0 0 0 0 0 0 0 0 0 0 0 0 0 0 0 0 0 0 0.15 0"/>
<feBlend mode="normal" in2="BackgroundImageFix" result="effect1_dropShadow_6_4093"/>
<feBlend mode="normal" in="SourceGraphic" in2="effect1_dropShadow_6_4093" result="shape"/>
</filter>
</defs>
</svg>
