<svg width="129" height="129" viewBox="0 0 131 131" fill="none" xmlns="http://www.w3.org/2000/svg">
<path d="M65.5001 97.792C67.3299 97.792 68.8649 97.172 70.1049 95.932C71.3449 94.692 71.9627 93.1592 71.9584 91.3337C71.9584 89.5038 71.3384 87.9689 70.0984 86.7289C68.8584 85.4889 67.3256 84.871 65.5001 84.8753C63.6702 84.8753 62.1353 85.4953 60.8953 86.7353C59.6553 87.9753 59.0374 89.5081 59.0417 91.3337C59.0417 93.1635 59.6617 94.6984 60.9017 95.9384C62.1417 97.1784 63.6745 97.7963 65.5001 97.792ZM65.5001 71.9587C67.3299 71.9587 68.8649 71.3387 70.1049 70.0987C71.3449 68.8587 71.9627 67.3259 71.9584 65.5003V39.667C71.9584 37.8371 71.3384 36.3022 70.0984 35.0622C68.8584 33.8222 67.3256 33.2044 65.5001 33.2087C63.6702 33.2087 62.1353 33.8287 60.8953 35.0687C59.6553 36.3087 59.0374 37.8414 59.0417 39.667V65.5003C59.0417 67.3302 59.6617 68.8651 60.9017 70.1051C62.1417 71.3451 63.6745 71.963 65.5001 71.9587ZM65.5001 130.084C56.5661 130.084 48.1702 128.387 40.3126 124.994C32.4549 121.602 25.6199 117.001 19.8074 111.193C13.9949 105.381 9.39439 98.5455 6.00592 90.6878C2.61744 82.8302 0.921054 74.4343 0.916748 65.5003C0.916748 56.5663 2.61314 48.1705 6.00592 40.3128C9.39869 32.4552 13.9992 25.6201 19.8074 19.8076C25.6199 13.9951 32.4549 9.39463 40.3126 6.00616C48.1702 2.61769 56.5661 0.921298 65.5001 0.916992C74.4341 0.916992 82.8299 2.61338 90.6876 6.00616C98.5452 9.39894 105.38 13.9994 111.193 19.8076C117.005 25.6201 121.608 32.4552 125.001 40.3128C128.393 48.1705 130.088 56.5663 130.083 65.5003C130.083 74.4343 128.387 82.8302 124.994 90.6878C121.601 98.5455 117.001 105.381 111.193 111.193C105.38 117.006 98.5452 121.608 90.6876 125.001C82.8299 128.394 74.4341 130.088 65.5001 130.084Z" fill="#D70015"/>
</svg>
