<svg width="276" height="160" viewBox="0 0 276 160" fill="none" xmlns="http://www.w3.org/2000/svg">
<rect width="276" height="160" fill="white"/>
<path d="M85.66 87V73H92.5C94.26 73 95.58 73.3333 96.46 74C97.3533 74.6667 97.8 75.5467 97.8 76.64C97.8 77.3733 97.62 78.0133 97.26 78.56C96.9 79.0933 96.4067 79.5067 95.78 79.8C95.1533 80.0933 94.4333 80.24 93.62 80.24L94 79.42C94.88 79.42 95.66 79.5667 96.34 79.86C97.02 80.14 97.5467 80.56 97.92 81.12C98.3067 81.68 98.5 82.3667 98.5 83.18C98.5 84.38 98.0267 85.32 97.08 86C96.1333 86.6667 94.74 87 92.9 87H85.66ZM88.88 84.56H92.66C93.5 84.56 94.1333 84.4267 94.56 84.16C95 83.88 95.22 83.44 95.22 82.84C95.22 82.2533 95 81.82 94.56 81.54C94.1333 81.2467 93.5 81.1 92.66 81.1H88.64V78.74H92.1C92.8867 78.74 93.4867 78.6067 93.9 78.34C94.3267 78.06 94.54 77.64 94.54 77.08C94.54 76.5333 94.3267 76.1267 93.9 75.86C93.4867 75.58 92.8867 75.44 92.1 75.44H88.88V84.56ZM100.733 87V72.16H103.853V87H100.733ZM111.869 87.16C110.722 87.16 109.702 86.92 108.809 86.44C107.929 85.96 107.229 85.3067 106.709 84.48C106.202 83.64 105.949 82.6867 105.949 81.62C105.949 80.54 106.202 79.5867 106.709 78.76C107.229 77.92 107.929 77.2667 108.809 76.8C109.702 76.32 110.722 76.08 111.869 76.08C113.002 76.08 114.015 76.32 114.909 76.8C115.802 77.2667 116.502 77.9133 117.009 78.74C117.515 79.5667 117.769 80.5267 117.769 81.62C117.769 82.6867 117.515 83.64 117.009 84.48C116.502 85.3067 115.802 85.96 114.909 86.44C114.015 86.92 113.002 87.16 111.869 87.16ZM111.869 84.6C112.389 84.6 112.855 84.48 113.269 84.24C113.682 84 114.009 83.66 114.249 83.22C114.489 82.7667 114.609 82.2333 114.609 81.62C114.609 80.9933 114.489 80.46 114.249 80.02C114.009 79.58 113.682 79.24 113.269 79C112.855 78.76 112.389 78.64 111.869 78.64C111.349 78.64 110.882 78.76 110.469 79C110.055 79.24 109.722 79.58 109.469 80.02C109.229 80.46 109.109 80.9933 109.109 81.62C109.109 82.2333 109.229 82.7667 109.469 83.22C109.722 83.66 110.055 84 110.469 84.24C110.882 84.48 111.349 84.6 111.869 84.6ZM125.054 87.16C123.894 87.16 122.861 86.9267 121.954 86.46C121.047 85.98 120.334 85.32 119.814 84.48C119.307 83.64 119.054 82.6867 119.054 81.62C119.054 80.54 119.307 79.5867 119.814 78.76C120.334 77.92 121.047 77.2667 121.954 76.8C122.861 76.32 123.894 76.08 125.054 76.08C126.187 76.08 127.174 76.32 128.014 76.8C128.854 77.2667 129.474 77.94 129.874 78.82L127.454 80.12C127.174 79.6133 126.821 79.24 126.394 79C125.981 78.76 125.527 78.64 125.034 78.64C124.501 78.64 124.021 78.76 123.594 79C123.167 79.24 122.827 79.58 122.574 80.02C122.334 80.46 122.214 80.9933 122.214 81.62C122.214 82.2467 122.334 82.78 122.574 83.22C122.827 83.66 123.167 84 123.594 84.24C124.021 84.48 124.501 84.6 125.034 84.6C125.527 84.6 125.981 84.4867 126.394 84.26C126.821 84.02 127.174 83.64 127.454 83.12L129.874 84.44C129.474 85.3067 128.854 85.98 128.014 86.46C127.174 86.9267 126.187 87.16 125.054 87.16ZM134.192 84.8L134.272 81L139.292 76.24H143.012L138.192 81.14L136.572 82.46L134.192 84.8ZM131.612 87V72.16H134.732V87H131.612ZM139.632 87L135.992 82.48L137.952 80.06L143.412 87H139.632Z" fill="#24292E"/>
<path d="M149.235 87L143.195 73H146.695L151.975 85.4H149.915L155.275 73H158.495L152.435 87H149.235ZM163.763 87.16C162.616 87.16 161.596 86.92 160.703 86.44C159.823 85.96 159.123 85.3067 158.603 84.48C158.096 83.64 157.843 82.6867 157.843 81.62C157.843 80.54 158.096 79.5867 158.603 78.76C159.123 77.92 159.823 77.2667 160.703 76.8C161.596 76.32 162.616 76.08 163.763 76.08C164.896 76.08 165.91 76.32 166.803 76.8C167.696 77.2667 168.396 77.9133 168.903 78.74C169.41 79.5667 169.663 80.5267 169.663 81.62C169.663 82.6867 169.41 83.64 168.903 84.48C168.396 85.3067 167.696 85.96 166.803 86.44C165.91 86.92 164.896 87.16 163.763 87.16ZM163.763 84.6C164.283 84.6 164.75 84.48 165.163 84.24C165.576 84 165.903 83.66 166.143 83.22C166.383 82.7667 166.503 82.2333 166.503 81.62C166.503 80.9933 166.383 80.46 166.143 80.02C165.903 79.58 165.576 79.24 165.163 79C164.75 78.76 164.283 78.64 163.763 78.64C163.243 78.64 162.776 78.76 162.363 79C161.95 79.24 161.616 79.58 161.363 80.02C161.123 80.46 161.003 80.9933 161.003 81.62C161.003 82.2333 161.123 82.7667 161.363 83.22C161.616 83.66 161.95 84 162.363 84.24C162.776 84.48 163.243 84.6 163.763 84.6ZM176.149 87.16C174.882 87.16 173.895 86.84 173.189 86.2C172.482 85.5467 172.129 84.58 172.129 83.3V73.86H175.249V83.26C175.249 83.7133 175.369 84.0667 175.609 84.32C175.849 84.56 176.175 84.68 176.589 84.68C177.082 84.68 177.502 84.5467 177.849 84.28L178.689 86.48C178.369 86.7067 177.982 86.88 177.529 87C177.089 87.1067 176.629 87.16 176.149 87.16ZM170.469 78.88V76.48H177.929V78.88H170.469ZM185.448 87.16C184.221 87.16 183.141 86.92 182.208 86.44C181.288 85.96 180.575 85.3067 180.068 84.48C179.561 83.64 179.308 82.6867 179.308 81.62C179.308 80.54 179.555 79.5867 180.048 78.76C180.555 77.92 181.241 77.2667 182.108 76.8C182.975 76.32 183.955 76.08 185.048 76.08C186.101 76.08 187.048 76.3067 187.888 76.76C188.741 77.2 189.415 77.84 189.908 78.68C190.401 79.5067 190.648 80.5 190.648 81.66C190.648 81.78 190.641 81.92 190.628 82.08C190.615 82.2267 190.601 82.3667 190.588 82.5H181.848V80.68H188.948L187.748 81.22C187.748 80.66 187.635 80.1733 187.408 79.76C187.181 79.3467 186.868 79.0267 186.468 78.8C186.068 78.56 185.601 78.44 185.068 78.44C184.535 78.44 184.061 78.56 183.648 78.8C183.248 79.0267 182.935 79.3533 182.708 79.78C182.481 80.1933 182.368 80.6867 182.368 81.26V81.74C182.368 82.3267 182.495 82.8467 182.748 83.3C183.015 83.74 183.381 84.08 183.848 84.32C184.328 84.5467 184.888 84.66 185.528 84.66C186.101 84.66 186.601 84.5733 187.028 84.4C187.468 84.2267 187.868 83.9667 188.228 83.62L189.888 85.42C189.395 85.98 188.775 86.4133 188.028 86.72C187.281 87.0133 186.421 87.16 185.448 87.16Z" fill="#1CB859"/>
</svg>
