<svg width="135" height="29" viewBox="0 0 158 29" fill="none" xmlns="http://www.w3.org/2000/svg">
<path d="M0 3C0 1.34315 1.34315 0 3 0H32.1494V29H3C1.34315 29 0 27.6569 0 26V3Z" fill="#24292E"/>
<g clip-path="url(#clip0_130_971)">
<path d="M22.3897 18.4875V19.8166H9.75954V18.4875H22.3897ZM12.2828 9.11951L13.2749 10.0592L11.0422 12.1739L13.2749 14.2886L12.2828 15.2284L9.05786 12.1739L12.2828 9.11951ZM22.3897 13.8354V15.1646H16.0746V13.8354H22.3897ZM22.3897 9.18331V10.5125H16.0746V9.18331H22.3897Z" fill="white"/>
</g>
<path d="M50.8094 21.5V7.5H57.6494C59.4094 7.5 60.7294 7.83333 61.6094 8.5C62.5027 9.16667 62.9494 10.0467 62.9494 11.14C62.9494 11.8733 62.7694 12.5133 62.4094 13.06C62.0494 13.5933 61.5561 14.0067 60.9294 14.3C60.3027 14.5933 59.5827 14.74 58.7694 14.74L59.1494 13.92C60.0294 13.92 60.8094 14.0667 61.4894 14.36C62.1694 14.64 62.6961 15.06 63.0694 15.62C63.4561 16.18 63.6494 16.8667 63.6494 17.68C63.6494 18.88 63.1761 19.82 62.2294 20.5C61.2827 21.1667 59.8894 21.5 58.0494 21.5H50.8094ZM54.0294 19.06H57.8094C58.6494 19.06 59.2827 18.9267 59.7094 18.66C60.1494 18.38 60.3694 17.94 60.3694 17.34C60.3694 16.7533 60.1494 16.32 59.7094 16.04C59.2827 15.7467 58.6494 15.6 57.8094 15.6H53.7894V13.24H57.2494C58.0361 13.24 58.6361 13.1067 59.0494 12.84C59.4761 12.56 59.6894 12.14 59.6894 11.58C59.6894 11.0333 59.4761 10.6267 59.0494 10.36C58.6361 10.08 58.0361 9.94 57.2494 9.94H54.0294V19.06ZM65.8824 21.5V6.66H69.0024V21.5H65.8824ZM77.018 21.66C75.8713 21.66 74.8513 21.42 73.958 20.94C73.078 20.46 72.378 19.8067 71.858 18.98C71.3513 18.14 71.098 17.1867 71.098 16.12C71.098 15.04 71.3513 14.0867 71.858 13.26C72.378 12.42 73.078 11.7667 73.958 11.3C74.8513 10.82 75.8713 10.58 77.018 10.58C78.1513 10.58 79.1647 10.82 80.058 11.3C80.9513 11.7667 81.6513 12.4133 82.158 13.24C82.6647 14.0667 82.918 15.0267 82.918 16.12C82.918 17.1867 82.6647 18.14 82.158 18.98C81.6513 19.8067 80.9513 20.46 80.058 20.94C79.1647 21.42 78.1513 21.66 77.018 21.66ZM77.018 19.1C77.538 19.1 78.0047 18.98 78.418 18.74C78.8313 18.5 79.158 18.16 79.398 17.72C79.638 17.2667 79.758 16.7333 79.758 16.12C79.758 15.4933 79.638 14.96 79.398 14.52C79.158 14.08 78.8313 13.74 78.418 13.5C78.0047 13.26 77.538 13.14 77.018 13.14C76.498 13.14 76.0313 13.26 75.618 13.5C75.2047 13.74 74.8713 14.08 74.618 14.52C74.378 14.96 74.258 15.4933 74.258 16.12C74.258 16.7333 74.378 17.2667 74.618 17.72C74.8713 18.16 75.2047 18.5 75.618 18.74C76.0313 18.98 76.498 19.1 77.018 19.1ZM90.2035 21.66C89.0435 21.66 88.0101 21.4267 87.1035 20.96C86.1968 20.48 85.4835 19.82 84.9635 18.98C84.4568 18.14 84.2035 17.1867 84.2035 16.12C84.2035 15.04 84.4568 14.0867 84.9635 13.26C85.4835 12.42 86.1968 11.7667 87.1035 11.3C88.0101 10.82 89.0435 10.58 90.2035 10.58C91.3368 10.58 92.3235 10.82 93.1635 11.3C94.0035 11.7667 94.6235 12.44 95.0235 13.32L92.6035 14.62C92.3235 14.1133 91.9701 13.74 91.5435 13.5C91.1301 13.26 90.6768 13.14 90.1835 13.14C89.6501 13.14 89.1701 13.26 88.7435 13.5C88.3168 13.74 87.9768 14.08 87.7235 14.52C87.4835 14.96 87.3635 15.4933 87.3635 16.12C87.3635 16.7467 87.4835 17.28 87.7235 17.72C87.9768 18.16 88.3168 18.5 88.7435 18.74C89.1701 18.98 89.6501 19.1 90.1835 19.1C90.6768 19.1 91.1301 18.9867 91.5435 18.76C91.9701 18.52 92.3235 18.14 92.6035 17.62L95.0235 18.94C94.6235 19.8067 94.0035 20.48 93.1635 20.96C92.3235 21.4267 91.3368 21.66 90.2035 21.66ZM99.3413 19.3L99.4213 15.5L104.441 10.74H108.161L103.341 15.64L101.721 16.96L99.3413 19.3ZM96.7613 21.5V6.66H99.8813V21.5H96.7613ZM104.781 21.5L101.141 16.98L103.101 14.56L108.561 21.5H104.781Z" fill="#24292E"/>
<path d="M114.384 21.5L108.344 7.5H111.844L117.124 19.9H115.064L120.424 7.5H123.644L117.584 21.5H114.384ZM128.913 21.66C127.766 21.66 126.746 21.42 125.853 20.94C124.973 20.46 124.273 19.8067 123.753 18.98C123.246 18.14 122.993 17.1867 122.993 16.12C122.993 15.04 123.246 14.0867 123.753 13.26C124.273 12.42 124.973 11.7667 125.853 11.3C126.746 10.82 127.766 10.58 128.913 10.58C130.046 10.58 131.059 10.82 131.953 11.3C132.846 11.7667 133.546 12.4133 134.053 13.24C134.559 14.0667 134.813 15.0267 134.813 16.12C134.813 17.1867 134.559 18.14 134.053 18.98C133.546 19.8067 132.846 20.46 131.953 20.94C131.059 21.42 130.046 21.66 128.913 21.66ZM128.913 19.1C129.433 19.1 129.899 18.98 130.313 18.74C130.726 18.5 131.053 18.16 131.293 17.72C131.533 17.2667 131.653 16.7333 131.653 16.12C131.653 15.4933 131.533 14.96 131.293 14.52C131.053 14.08 130.726 13.74 130.313 13.5C129.899 13.26 129.433 13.14 128.913 13.14C128.393 13.14 127.926 13.26 127.513 13.5C127.099 13.74 126.766 14.08 126.513 14.52C126.273 14.96 126.153 15.4933 126.153 16.12C126.153 16.7333 126.273 17.2667 126.513 17.72C126.766 18.16 127.099 18.5 127.513 18.74C127.926 18.98 128.393 19.1 128.913 19.1ZM141.298 21.66C140.031 21.66 139.045 21.34 138.338 20.7C137.631 20.0467 137.278 19.08 137.278 17.8V8.36H140.398V17.76C140.398 18.2133 140.518 18.5667 140.758 18.82C140.998 19.06 141.325 19.18 141.738 19.18C142.231 19.18 142.651 19.0467 142.998 18.78L143.838 20.98C143.518 21.2067 143.131 21.38 142.678 21.5C142.238 21.6067 141.778 21.66 141.298 21.66ZM135.618 13.38V10.98H143.078V13.38H135.618ZM150.597 21.66C149.371 21.66 148.291 21.42 147.357 20.94C146.437 20.46 145.724 19.8067 145.217 18.98C144.711 18.14 144.457 17.1867 144.457 16.12C144.457 15.04 144.704 14.0867 145.197 13.26C145.704 12.42 146.391 11.7667 147.257 11.3C148.124 10.82 149.104 10.58 150.197 10.58C151.251 10.58 152.197 10.8067 153.037 11.26C153.891 11.7 154.564 12.34 155.057 13.18C155.551 14.0067 155.797 15 155.797 16.16C155.797 16.28 155.791 16.42 155.777 16.58C155.764 16.7267 155.751 16.8667 155.737 17H146.997V15.18H154.097L152.897 15.72C152.897 15.16 152.784 14.6733 152.557 14.26C152.331 13.8467 152.017 13.5267 151.617 13.3C151.217 13.06 150.751 12.94 150.217 12.94C149.684 12.94 149.211 13.06 148.797 13.3C148.397 13.5267 148.084 13.8533 147.857 14.28C147.631 14.6933 147.517 15.1867 147.517 15.76V16.24C147.517 16.8267 147.644 17.3467 147.897 17.8C148.164 18.24 148.531 18.58 148.997 18.82C149.477 19.0467 150.037 19.16 150.677 19.16C151.251 19.16 151.751 19.0733 152.177 18.9C152.617 18.7267 153.017 18.4667 153.377 18.12L155.037 19.92C154.544 20.48 153.924 20.9133 153.177 21.22C152.431 21.5133 151.571 21.66 150.597 21.66Z" fill="#1CB859"/>
<defs>
<clipPath id="clip0_130_971">
<rect width="16.8402" height="15.95" fill="white" transform="translate(7.65454 6.52502)"/>
</clipPath>
</defs>
</svg>
